<?xml version="1.0" encoding="UTF-8"?>
<svg version="1.1" xmlns="http://www.w3.org/2000/svg" width="1836" height="800">
<path d="M0 0 C15.18 0 30.36 0 46 0 C55.01669581 25.65575303 63.86528584 51.35997674 72.5625 77.125 C72.93626141 78.23219957 72.93626141 78.23219957 73.31757355 79.36176682 C74.568551 83.06770247 75.81937568 86.77368968 77.07015991 90.47969055 C77.3133836 91.2003451 77.55660728 91.92099964 77.80720139 92.6634922 C78.29388826 94.10556839 78.7805446 95.54765487 79.26716995 96.98975182 C83.82937216 110.50894517 88.42695677 124.01580945 93.046875 137.51538086 C93.5807352 139.07535601 94.11458936 140.63533322 94.6484375 142.1953125 C94.91162781 142.96426346 95.17481812 143.73321442 95.44598389 144.52546692 C97.71463067 151.1573372 99.97144339 157.79320668 102.2265625 164.4296875 C102.58772659 165.49219223 102.94889069 166.55469696 103.32099915 167.6493988 C106.20759025 176.14160188 106.20759025 176.14160188 107.58859253 180.21133423 C111.3080704 191.17214247 115.05481507 202.11804813 119 213 C122.20381443 205.29433715 124.95076077 197.47194632 127.60546875 189.5625 C128.04583454 188.25734423 128.4864644 186.95227753 128.92733765 185.64729309 C129.86321901 182.87546721 130.79742575 180.10308518 131.73025513 177.33023071 C133.20982818 172.9323293 134.69327428 168.53574066 136.17749023 164.1394043 C136.6803185 162.64988891 137.18314138 161.16037169 137.68595886 159.67085266 C137.93493612 158.93330561 138.18391338 158.19575855 138.44043541 157.43586159 C139.19623441 155.19648719 139.9516642 152.95698857 140.70698547 150.717453 C144.97114925 138.0753047 149.26166815 125.44222022 153.5625 112.8125 C158.18747623 99.22660596 162.80236472 85.63734586 167.40234375 72.04296875 C167.87162278 70.65631442 168.34090684 69.26966179 168.81019592 67.88301086 C171.56642716 59.73860414 171.56642716 59.73860414 174.32034302 51.59341431 C180.14099625 34.36961059 186.03471641 17.17424388 192 0 C207.18 0 222.36 0 238 0 C240.25001327 11.25006637 240.25001327 11.25006637 240.74585152 15.18053055 C240.86130227 16.08152332 240.97675303 16.98251608 241.09570229 17.91081166 C241.21438695 18.8658914 241.33307162 19.82097113 241.45535278 20.80499268 C241.58773531 21.84652583 241.72011783 22.88805898 241.85651195 23.96115375 C242.29597753 27.42582385 242.73027245 30.8911215 243.16455078 34.35644531 C243.47981131 36.85065457 243.79538127 39.34482473 244.11123657 41.83895874 C244.87714037 47.89388353 245.63964418 53.94922794 246.40045418 60.00479463 C247.01887726 64.92648256 247.63872531 69.8479891 248.2595787 74.76937103 C248.39238957 75.82215281 248.39238957 75.82215281 248.52788349 76.89620291 C248.70778128 78.32219158 248.88768222 79.74817985 249.06758629 81.17416772 C250.75165583 94.52409823 252.43125814 107.87458784 254.10932563 121.22527394 C255.54869397 132.67601854 256.991936 144.1262695 258.43798828 155.57617188 C260.11898049 168.88635164 261.79755241 182.19683297 263.47228611 195.50780177 C263.65087179 196.9271656 263.82946068 198.34652902 264.00805283 199.76589203 C264.09591438 200.46418189 264.18377593 201.16247175 264.27429996 201.8819219 C264.89310879 206.79862503 265.51364805 211.71510798 266.13486099 216.63150787 C266.97067058 223.24667354 267.80253421 229.86232394 268.63174057 236.47832108 C268.93682986 238.90770912 269.24318964 241.336938 269.55090332 243.76599503 C269.9702464 247.07788962 270.38501459 250.39032591 270.7986145 253.70294189 C270.92176061 254.66694452 271.04490671 255.63094714 271.17178452 256.62416196 C271.28201978 257.51472374 271.39225504 258.40528552 271.50583076 259.32283401 C271.60195502 260.08672668 271.69807928 260.85061934 271.7971164 261.63766026 C272.03570142 264.41570079 272 267.21173316 272 270 C260.45 270 248.9 270 237 270 C235.72674605 263.63373027 234.56837916 257.43090903 233.77243042 251.01486206 C233.66454921 250.16918958 233.556668 249.3235171 233.44551766 248.45221817 C233.08900834 245.65069553 232.73761115 242.84855687 232.38623047 240.04638672 C232.13009066 238.0251937 231.87363281 236.00404096 231.61688232 233.98292542 C230.92371533 228.51922005 230.23497865 223.05496444 229.54705572 217.59059668 C228.82628508 211.87144117 228.1014139 206.15280544 227.37698364 200.43411255 C226.00710369 189.61523157 224.64089461 178.79589036 223.27601445 167.97637761 C221.72141296 155.65437463 220.16270363 143.33289239 218.60365462 131.01145148 C215.39787586 105.67487644 212.19723812 80.33765411 209 55 C205.3292652 66.12195221 201.6595006 77.24422409 197.99082756 88.36685658 C196.28550051 93.53695173 194.57989353 98.70695411 192.87353516 103.87670898 C184.82110286 128.27394735 176.80375056 152.6820022 168.86504161 177.11650407 C168.47117486 178.32876002 168.47117486 178.32876002 168.0693512 179.56550598 C167.81254487 180.35592651 167.55573855 181.14634704 167.29115021 181.9607197 C164.61542338 190.19142705 161.91733103 198.41476563 159.21484375 206.63671875 C158.97977619 207.35199254 158.74470864 208.06726632 158.50251782 208.80421507 C156.52968994 214.80697713 154.55567712 220.80934838 152.58032227 226.8112793 C151.24896743 230.85686671 149.91907202 234.90293219 148.58984375 238.94921875 C148.17769623 240.20322479 147.76554871 241.45723083 147.34091187 242.74923706 C144.75721327 250.63083406 142.24254092 258.52872266 139.84204102 266.46801758 C139 269 139 269 138 270 C135.1883662 270.08861992 132.40141745 270.11522355 129.58984375 270.09765625 C128.74780899 270.0962413 127.90577423 270.09482635 127.03822327 270.09336853 C124.33794665 270.08775263 121.63775172 270.07519748 118.9375 270.0625 C117.11132932 270.05748705 115.28515734 270.05292379 113.45898438 270.04882812 C108.97262458 270.03777804 104.48632616 270.02050279 100 270 C99.30078125 267.90234375 98.6015625 265.8046875 97.90234375 263.70703125 C97.67709518 263.03133087 97.45184662 262.35563049 97.21977234 261.65945435 C95.91819639 257.75491874 94.61686959 253.85030032 93.31591797 249.94555664 C90.638502 241.91024833 87.95932466 233.87554383 85.27256775 225.84335327 C78.33487501 205.10218799 71.45515312 184.34427573 64.70507812 163.54125977 C61.06854348 152.33719567 57.41016036 141.14045879 53.734375 129.94921875 C53.50400669 129.2477516 53.27363838 128.54628445 53.03628922 127.82356071 C50.73070612 120.80334363 48.42399718 113.7834982 46.11499977 106.76440334 C45.24886559 104.13093113 44.38332628 101.49726384 43.51810074 98.86349297 C43.09673455 97.5808622 42.67523478 96.29827532 42.25359726 95.01573372 C38.90741736 84.83332305 35.62569072 74.63129501 32.41677856 64.40475464 C32.11150238 63.43990143 31.8062262 62.47504822 31.49169922 61.48095703 C31.22622284 60.6353421 30.96074646 59.78972717 30.68722534 58.91848755 C30.16067847 57.01826865 30.16067847 57.01826865 29 56 C28.86177102 57.09682319 28.72354204 58.19364637 28.58112431 59.32370663 C25.22266568 85.97091843 21.85929397 112.61750656 18.49072361 139.26344204 C16.86184584 152.14904921 15.23458463 165.03485673 13.61108398 177.92114258 C12.19658651 189.14846529 10.77910182 200.37540605 9.35797828 211.60189205 C8.60511361 217.5501646 7.85378033 223.49862182 7.10601997 229.44753838 C6.40302221 235.03995892 5.69604972 240.63186222 4.98594666 246.22338486 C4.72523561 248.28200991 4.4660117 250.34082389 4.2083416 252.39983177 C3.85792388 255.19821756 3.50229539 257.9958914 3.14527893 260.79344177 C3.04313617 261.61930092 2.94099341 262.44516006 2.83575541 263.29604524 C2.11412121 268.88587879 2.11412121 268.88587879 1 270 C-1.59359322 270.08851529 -4.16039691 270.11525945 -6.75390625 270.09765625 C-7.52935287 270.0962413 -8.3047995 270.09482635 -9.10374451 270.09336853 C-11.59003494 270.08775345 -14.0762366 270.07519846 -16.5625 270.0625 C-18.24413933 270.05748694 -19.92578006 270.0529237 -21.60742188 270.04882812 C-25.73831311 270.03862839 -29.86914195 270.01930812 -34 270 C-32.59007493 255.03267871 -30.83018226 240.12490656 -28.94311523 225.2109375 C-28.63881664 222.79088959 -28.33473567 220.37081431 -28.03085327 217.95071411 C-27.29749107 212.11513581 -26.56177677 206.27985711 -25.82485109 200.44472802 C-25.22616028 195.70374632 -24.62849761 190.96263602 -24.03154182 186.22143555 C-23.94606533 185.54256137 -23.86058883 184.8636872 -23.77252214 184.16424108 C-23.59882151 182.78463299 -23.42512332 181.40502459 -23.25142754 180.0254159 C-21.63095505 167.15546431 -20.00738644 154.28590481 -18.38270945 141.4164834 C-16.98948108 130.37984438 -15.59889108 119.34287552 -14.21020508 108.30566406 C-12.59295997 95.45188757 -10.97414047 82.598311 -9.35276943 69.74505424 C-9.18005856 68.3758738 -9.00734955 67.00669312 -8.83464241 65.63751221 C-8.74968568 64.96400368 -8.66472895 64.29049516 -8.57719777 63.59657729 C-7.97913028 58.85443433 -7.38218565 54.1121508 -6.78567314 49.36981201 C-5.98441643 43.00002126 -5.18057076 36.6305605 -4.37496567 30.26131821 C-4.07943388 27.92165569 -3.78473799 25.58188741 -3.49092674 23.24200821 C-3.09076179 20.05623174 -2.68761049 16.87084727 -2.28367615 13.68554688 C-2.16733383 12.75366735 -2.05099151 11.82178783 -1.93112367 10.86166954 C-1.7680093 9.58285125 -1.7680093 9.58285125 -1.60159969 8.27819824 C-1.46253953 7.17580433 -1.46253953 7.17580433 -1.32067007 6.05113983 C-1.00178054 4.01138909 -0.50072146 2.00288583 0 0 Z " fill="#2A96D4" transform="translate(905,98)"/>
<path d="M0 0 C140.42474916 0 140.42474916 0 171 28 C171.85207031 28.77085938 172.70414063 29.54171875 173.58203125 30.3359375 C200.65667876 56.03813744 208.47422411 93.09399883 210 129 C210.93846109 168.4121519 202.76954207 208.00665428 175.3359375 237.59375 C156.15186581 257.35526866 132.83489204 266.16644399 106 270 C71.02 270 36.04 270 0 270 C0 180.9 0 91.8 0 0 Z M37 32 C37 100.31 37 168.62 37 239 C96.29564529 242.51815889 96.29564529 242.51815889 145 217 C145.7734375 216.26136719 146.546875 215.52273438 147.34375 214.76171875 C168.70785015 192.9952126 171.40755096 157.92695637 171.15234375 129.15234375 C170.62324145 100.95250304 164.52356873 72.59545513 144 52 C143.39800781 51.37480469 142.79601563 50.74960938 142.17578125 50.10546875 C114.96464995 23.95681113 69.35434202 32 37 32 Z " fill="#2A96D4" transform="translate(1422,98)"/>
<path d="M0 0 C52.47 0 104.94 0 159 0 C159 10.56 159 21.12 159 32 C118.41 32 77.82 32 36 32 C36 58.73 36 85.46 36 113 C72.63 113 109.26 113 147 113 C147 123.56 147 134.12 147 145 C110.37 145 73.74 145 36 145 C36 175.69 36 206.38 36 238 C78.24 238 120.48 238 164 238 C164 248.56 164 259.12 164 270 C109.88 270 55.76 270 0 270 C0 180.9 0 91.8 0 0 Z " fill="#2A96D4" transform="translate(665,98)"/>
<path d="M0 0 C1.82734708 5.48204125 -1.13822074 11.23768301 -2.75 16.625 C-3.29140625 18.52378906 -3.29140625 18.52378906 -3.84375 20.4609375 C-4.19953125 21.66234375 -4.5553125 22.86375 -4.921875 24.1015625 C-5.41059082 25.76179443 -5.41059082 25.76179443 -5.90917969 27.45556641 C-6.26915039 28.29522949 -6.62912109 29.13489258 -7 30 C-10.75302376 31.25100792 -11.95696865 30.55289606 -15.63671875 29.234375 C-16.76295654 28.83984131 -17.88919434 28.44530762 -19.04956055 28.03881836 C-20.25008057 27.6135083 -21.45060059 27.18819824 -22.6875 26.75 C-47.43522845 18.31500478 -73.89441886 13.98122261 -98.5625 25.375 C-107.02468023 30.04623707 -112.93470671 35.99253284 -116.11328125 45.23828125 C-118.54275723 55.54482472 -118.37329488 67.68824102 -113 77 C-100.61130359 95.18824 -76.53029221 100.29570617 -56.77539062 106.66137695 C-32.10864872 114.65479756 -9.41195065 124.70749719 3 149 C8.43048269 160.47032647 9.41409935 171.52896535 9.375 184.125 C9.37412384 184.81253357 9.37324768 185.50006714 9.37234497 186.20843506 C9.28381678 207.24506083 4.05991931 224.51452567 -11 240 C-33.82561967 260.73523796 -64.81616465 264.24506116 -94.36669922 262.89160156 C-117.52450616 261.55435412 -142.27616631 254.36191685 -163 244 C-160.45115129 233.41620917 -156.6653736 223.23507071 -153 213 C-148.91623692 213.56358696 -145.46274699 214.47361696 -141.68359375 216.109375 C-140.68199219 216.53226807 -139.68039063 216.95516113 -138.6484375 217.39086914 C-137.58882812 217.83938232 -136.52921875 218.28789551 -135.4375 218.75 C-112.13673806 228.3499549 -82.74412497 235.78151543 -58.10302734 226.26757812 C-45.48063768 220.86769457 -37.25297811 214.34464975 -31.9609375 201.47265625 C-28.55177438 190.87876149 -28.13093707 177.19747143 -33 167 C-34.73350358 164.0460235 -36.69396036 161.52818107 -39 159 C-39.54140625 158.40445313 -40.0828125 157.80890625 -40.640625 157.1953125 C-52.95551792 145.14813464 -72.45819476 141.35866544 -88.42480469 136.16503906 C-138.25964923 119.92549535 -138.25964923 119.92549535 -150.875 95.9375 C-159.59825686 76.98697647 -159.6425081 53.36727526 -152.8984375 33.8046875 C-145.26717729 14.1603467 -130.93365964 1.34371166 -112.0859375 -7.13085938 C-106.56224392 -9.43239837 -100.85901198 -10.81447042 -95 -12 C-93.90300781 -12.22429687 -92.80601563 -12.44859375 -91.67578125 -12.6796875 C-62.59399414 -17.52112526 -26.44433178 -14.11302104 0 0 Z " fill="#2A96D4" transform="translate(180,113)"/>
<path d="M0 0 C12.21 0 24.42 0 37 0 C41.49988705 11.24971763 41.49988705 11.24971763 43.21630859 16.57373047 C43.60634567 17.77765945 43.99638275 18.98158844 44.39823914 20.22200012 C44.81503165 21.52037674 45.23176247 22.81877317 45.6484375 24.1171875 C46.09745595 25.50743871 46.54679034 26.8975879 46.99641418 28.28764343 C48.20708072 32.03336951 49.41354012 35.78043839 50.61925888 39.52775955 C51.89895138 43.50232958 53.18266967 47.47559884 54.46606445 51.44897461 C56.32896057 57.2176128 58.19065061 62.98663755 60.05074787 68.75617886 C63.26264092 78.71858685 66.4822526 88.67847488 69.70703125 98.63671875 C70.16842761 100.06161972 70.62982288 101.48652105 71.09121704 102.91142273 C71.77707424 105.02950308 72.46293449 107.14758243 73.14881706 109.26565456 C77.43708568 122.50896707 81.71854386 135.75448383 86 149 C86.23173668 149.71689499 86.46347336 150.43378998 86.70223236 151.17240906 C89.73795989 160.56379228 92.77229504 169.95562382 95.80459595 179.34811401 C96.67301351 182.03795363 97.54181673 184.72766817 98.41098022 187.41726685 C99.61096442 191.13070701 100.80946319 194.84462566 102.0078125 198.55859375 C102.35472641 199.63156708 102.70164032 200.70454041 103.05906677 201.81002808 C104.04599938 204.87128561 105.02510473 207.93488885 106 211 C106.37509705 212.17354034 106.75019409 213.34708069 107.13665771 214.55618286 C107.50389954 215.72237152 107.87114136 216.88856018 108.24951172 218.09008789 C108.58473846 219.14958145 108.91996521 220.20907501 109.26535034 221.30067444 C110 224 110 224 110 227 C110.66 227 111.32 227 112 227 C112.22929199 225.81865479 112.45858398 224.63730957 112.69482422 223.42016602 C114.22897553 216.54323869 116.60263631 209.93327924 118.8828125 203.27734375 C119.37475249 201.82971529 119.86623755 200.38193217 120.3572998 198.93400574 C121.40007707 195.86194773 122.44562256 192.79085257 123.49346924 189.72052002 C125.14015969 184.8951892 126.78058782 180.06774613 128.41943359 175.23974609 C128.82835563 174.03507187 128.82835563 174.03507187 129.24553871 172.80606079 C129.7954408 171.18596163 130.3453123 169.56585209 130.89515305 167.94573212 C131.71872319 165.51961023 132.54286898 163.09368446 133.36709595 160.66778564 C137.83811416 147.50391939 142.24685998 134.32006297 146.625 121.125 C151.55670381 106.27333126 156.55790651 91.44795177 161.64199829 76.64776611 C165.50839788 65.38770531 169.30822432 54.10650901 173.0625 42.80859375 C173.38866082 41.82748469 173.38866082 41.82748469 173.72141075 40.82655525 C175.89975349 34.27363623 178.07532002 27.71981729 180.24223518 21.16310978 C181.23883928 18.1497177 182.23896639 15.13749401 183.23828125 12.125 C183.7872406 10.45787209 183.7872406 10.45787209 184.34729004 8.75706482 C184.68296997 7.74668655 185.0186499 6.73630829 185.36450195 5.6953125 C185.80413017 4.3652417 185.80413017 4.3652417 186.25263977 3.00830078 C187 1 187 1 188 0 C190.6662603 -0.08855161 193.30647114 -0.11524673 195.97265625 -0.09765625 C196.77029892 -0.0962413 197.56794159 -0.09482635 198.38975525 -0.09336853 C200.94737435 -0.08775316 203.50490718 -0.07519812 206.0625 -0.0625 C207.79231645 -0.05748698 209.52213426 -0.05292373 211.25195312 -0.04882812 C215.50133553 -0.03777875 219.75065312 -0.02050386 224 0 C222.78942772 5.94995165 221.24494383 11.64074312 219.24609375 17.37109375 C218.96204681 18.19952789 218.67799988 19.02796204 218.38534546 19.88150024 C217.74972252 21.734513 217.1120223 23.58681413 216.4725647 25.43850708 C214.57671502 30.93153545 212.6994555 36.43092608 210.8203125 41.9296875 C210.60608202 42.5560441 210.39185154 43.1824007 210.17112923 43.82773781 C203.70426718 62.73844289 197.34769062 81.68648419 190.97631836 100.6295166 C187.36879736 111.35517011 183.75873929 122.07996975 180.1484375 132.8046875 C179.79578072 133.85232269 179.44312393 134.89995789 179.07978058 135.9793396 C170.21152857 162.32288008 161.30995251 188.65504989 152.38085938 214.97802734 C150.36239649 220.92921652 148.34800808 226.88177704 146.33457947 232.83467102 C144.80952491 237.34181367 143.28198431 241.84811059 141.75369263 246.35415649 C141.05142409 248.42622759 140.35012586 250.49862785 139.64987183 252.57138062 C138.71072269 255.35060701 137.76797634 258.1285858 136.82421875 260.90625 C136.41197052 262.13043388 136.41197052 262.13043388 135.99139404 263.37934875 C134.11418813 268.88581187 134.11418813 268.88581187 133 270 C131.55710213 270.09295815 130.10970215 270.11746513 128.66381836 270.11352539 C127.7429393 270.11344986 126.82206024 270.11337433 125.87327576 270.11329651 C124.87224319 270.10813522 123.87121063 270.10297394 122.83984375 270.09765625 C121.82024063 270.0962413 120.80063751 270.09482635 119.75013733 270.09336853 C116.47922893 270.08775097 113.20838787 270.0751955 109.9375 270.0625 C107.72591244 270.05748726 105.51432382 270.05292396 103.30273438 270.04882812 C97.86846643 270.03777584 92.43423803 270.02102063 87 270 C64.83358896 202.791166 64.83358896 202.791166 56 175 C49.38710885 154.19709223 42.58376797 133.45941862 35.75118256 112.72793198 C28.45606951 90.59214422 21.25073924 68.43159858 14.1875 46.22045898 C10.36616554 34.21163304 6.47771479 22.23068373 2.38330078 10.31176758 C2.06087402 9.36454834 1.73844727 8.4173291 1.40625 7.44140625 C1.13103516 6.64420166 0.85582031 5.84699707 0.57226562 5.02563477 C0 3 0 3 0 0 Z " fill="#2A96D4" transform="translate(402,98)"/>
<path d="M0 0 C1.22244667 0.00333092 1.22244667 0.00333092 2.46958923 0.00672913 C3.39046829 0.00680466 4.31134735 0.00688019 5.26013184 0.00695801 C6.2611644 0.01211929 7.26219696 0.01728058 8.29356384 0.02259827 C9.31316696 0.02401321 10.33277008 0.02542816 11.38327026 0.02688599 C14.65417867 0.03250355 17.92501972 0.04505902 21.19590759 0.05775452 C23.40749515 0.06276725 25.61908377 0.06733055 27.83067322 0.07142639 C33.26494116 0.08247868 38.69916957 0.09923389 44.13340759 0.12025452 C51.63411081 22.4674402 59.02868069 44.84966149 66.38340759 67.24525452 C66.61084782 67.93782097 66.83828804 68.63038742 67.07262039 69.34394073 C73.44933162 88.76575049 79.74884741 108.21033765 85.94526672 127.6905365 C91.82818034 146.17408558 97.87355278 164.60231238 103.94379044 183.02493668 C110.71651984 203.58145154 117.48686293 224.13829959 124.09089661 244.74980164 C124.73878095 246.77141142 125.38810938 248.79255902 126.03895569 250.81321716 C126.91747245 253.54302903 127.79017657 256.27461992 128.66075134 259.00697327 C128.91577423 259.7971283 129.17079712 260.58728333 129.43354797 261.40138245 C130.3878459 264.41825261 131.13340759 266.93533769 131.13340759 270.12025452 C118.92340759 270.12025452 106.71340759 270.12025452 94.13340759 270.12025452 C80.50091439 229.39982026 67.08055828 188.60994219 54.0365448 147.69697571 C42.99961408 113.08628764 31.70629436 78.55558615 20.13340759 44.12025452 C11.66110362 68.87980236 3.26148746 93.66169472 -4.99159241 118.49525452 C-10.4430748 134.89821064 -15.94481211 151.28116695 -21.56031799 167.62867737 C-25.39375006 178.79538499 -29.16714597 189.98132265 -32.89784241 201.18275452 C-33.11768925 201.84280361 -33.33753609 202.50285271 -33.56404495 203.18290329 C-35.55152032 209.15127181 -37.5371177 215.12026271 -39.51741028 221.09101868 C-43.75519412 233.8682491 -48.00745428 246.63935749 -52.40565491 259.36244202 C-52.74180817 260.34004486 -53.07796143 261.31764771 -53.42430115 262.32487488 C-53.73219574 263.20980621 -54.04009033 264.09473755 -54.35731506 265.00648499 C-54.62597382 265.78104034 -54.89463257 266.5555957 -55.1714325 267.35362244 C-55.86659241 269.12025452 -55.86659241 269.12025452 -56.86659241 270.12025452 C-59.53285271 270.20880612 -62.17306355 270.23550125 -64.83924866 270.21791077 C-65.63689133 270.21649582 -66.434534 270.21508087 -67.25634766 270.21362305 C-69.81396676 270.20800768 -72.37149959 270.19545264 -74.92909241 270.18275452 C-76.65890885 270.17774149 -78.38872667 270.17317824 -80.11854553 270.16908264 C-84.36792794 270.15803326 -88.61724553 270.14075838 -92.86659241 270.12025452 C-90.55669239 261.05005609 -87.62815158 252.21360642 -84.61659241 243.35853577 C-84.08976896 241.80154511 -83.56324223 240.24445403 -83.0369873 238.68727112 C-81.90879932 235.35095379 -80.77861921 232.01532075 -79.64683533 228.68022156 C-77.83416405 223.33863897 -76.02594729 217.99555494 -74.21839905 212.65223694 C-72.01013235 206.12523128 -69.80086182 199.59856719 -67.59027576 193.07234669 C-63.71544306 181.63244325 -59.84875664 170.18980966 -55.98768616 158.74525452 C-55.71021923 157.92283768 -55.4327523 157.10042084 -55.14687729 156.25308228 C-53.75356523 152.12315339 -52.36039767 147.99317578 -50.96730042 143.86317444 C-48.18860008 135.62562625 -45.40845787 127.38856465 -42.62831116 119.15150452 C-42.35311268 118.3361171 -42.0779142 117.52072968 -41.79437637 116.68063354 C-37.71181786 104.58453153 -33.62722671 92.48911701 -29.54146004 80.39409828 C-28.64157185 77.73013297 -27.74173581 75.06615005 -26.84191895 72.40216064 C-26.54854299 71.53359845 -26.25516703 70.66503626 -25.95290089 69.770154 C-25.36632013 68.03353591 -24.77974112 66.29691724 -24.19316387 64.56029797 C-22.51258811 59.58492081 -20.83162889 54.60967343 -19.15036678 49.63452816 C-18.1116221 46.56043558 -17.07321141 43.48623026 -16.03489494 40.41199303 C-15.54162703 38.9517338 -15.04822756 37.491519 -14.55468941 36.03135109 C-12.22474996 29.13766633 -9.901036 22.24224472 -7.61854553 15.33265686 C-7.28800171 14.33288315 -6.95745789 13.33310944 -6.61689758 12.30303955 C-6.02320572 10.50295552 -5.43213452 8.70200396 -4.84431458 6.8999939 C-2.62643702 0.16920722 -2.62643702 0.16920722 0 0 Z " fill="#2A96D4" transform="translate(288.86659240722656,98.87974548339844)"/>
<path d="M0 0 C52.8 0 105.6 0 160 0 C160 10.89 160 21.78 160 33 C107.2 33 54.4 33 0 33 C0 22.11 0 11.22 0 0 Z " fill="#E83B43" transform="translate(1221,332)"/>
<path d="M0 0 C52.8 0 105.6 0 160 0 C160 10.89 160 21.78 160 33 C107.2 33 54.4 33 0 33 C0 22.11 0 11.22 0 0 Z " fill="#E83B43" transform="translate(1221,214)"/>
<path d="M0 0 C52.8 0 105.6 0 160 0 C160 10.89 160 21.78 160 33 C107.2 33 54.4 33 0 33 C0 22.11 0 11.22 0 0 Z " fill="#E83B43" transform="translate(1221,99)"/>
</svg>
